{"title":"The.Last.Stand.2012.BRRip XViD AC3 juggs","uid":8399675,"size":1488212591,"categoryP":"video","categoryS":"movies","magnet":"?xt=urn:btih:cf0d529895bb7f27ee01d8cd5688fb87572ff764&amp;dn=The.Last.Stand.2012.BRRip+XViD+AC3+juggs&amp;tr=udp%3A%2F%2Ftracker.openbittorrent.com%3A80&amp;tr=udp%3A%2F%2Fopen.demonii.com%3A1337&amp;tr=udp%3A%2F%2Ftracker.coppersurfer.tk%3A6969&amp;tr=udp%3A%2F%2Fexodus.desync.com%3A6969","seeders":1,"leechers":0,"uploader":"juggs99","files":3,"time":1366663936,"description":"Source : HDW(Thanks)\n\nFormat : AVI\nFormat/Info : Audio Video Interleave\nFile size : 1.36 GiB\nDuration : 1h 47mn\nOverall bit rate : 1 824 Kbps\nWriting library : VirtualDub build 32842/release\n\nVideo\nID : 0\nFormat : MPEG-4 Visual\nFormat profile : Advanced Simple@L5\nFormat settings, BVOP : 2\nFormat settings, QPel : No\nFormat settings, GMC : No warppoints\nFormat settings, Matrix : Default (H.263)\nMuxing mode : Packed bitstream\nCodec ID : XVID\nCodec ID/Hint : XviD\nDuration : 1h 47mn\nBit rate : 1 591 Kbps\nWidth : 720 pixels\nHeight : 304 pixels\nDisplay aspect ratio : 2.35:1\nFrame rate : 24.000 fps\nColor space : YUV\nChroma subsampling : 4:2:0\nBit depth : 8 bits\nScan type : Progressive\nCompression mode : Lossy\nBits/(Pixel*Frame) : 0.303\nStream size : 1.19 GiB (87%)\nWriting library : XviD 1.2.0.dev47 (UTC 2006-11-01)\n\nAudio\nID : 1\nFormat : AC-3\nFormat/Info : Audio Coding 3\nMode extension : CM (complete main)\nFormat settings, Endianness : Big\nCodec ID : 2000\nDuration : 1h 47mn\nBit rate mode : Constant\nBit rate : 224 Kbps\nChannel(s) : 2 channels\nChannel positions : Front: L R\nSampling rate : 44.1 KHz\nBit depth : 16 bits\nCompression mode : Lossy\nStream size : 171 MiB (12%)\nAlignment : Aligned on interleaves\nInterleave, duration : 42 ms (1.00 video frame)\nInterleave, preload duration : 522 ms\n\n &lt;a href=&quot;\nhttp://www.shotpix.com/images/79661938301569786783.png&quot; rel=&quot;nofollow&quot; target=&quot;_NEW&quot;&gt;\nhttp://www.shotpix.com/images/79661938301569786783.png&lt;/a&gt; &lt;a href=&quot;\nhttp://www.shotpix.com/images/72077174646708688500.png&quot; rel=&quot;nofollow&quot; target=&quot;_NEW&quot;&gt;\nhttp://www.shotpix.com/images/72077174646708688500.png&lt;/a&gt; &lt;a href=&quot;\nhttp://www.shotpix.com/images/55586172567733785065.png&quot; rel=&quot;nofollow&quot; target=&quot;_NEW&quot;&gt;\nhttp://www.shotpix.com/images/55586172567733785065.png&lt;/a&gt;","torrent":{"xt":"urn:btih:cf0d529895bb7f27ee01d8cd5688fb87572ff764","amp;dn":"The.Last.Stand.2012.BRRip+XViD+AC3+juggs","amp;tr":["udp%3A%2F%2Ftracker.openbittorrent.com%3A80","udp%3A%2F%2Fopen.demonii.com%3A1337","udp%3A%2F%2Ftracker.coppersurfer.tk%3A6969","udp%3A%2F%2Fexodus.desync.com%3A6969"],"infoHash":"cf0d529895bb7f27ee01d8cd5688fb87572ff764","infoHashBuffer":{"type":"Buffer","data":[207,13,82,152,149,187,127,39,238,1,216,205,86,136,251,135,87,47,247,100]},"announce":[],"urlList":[]}}